<?xml version="1.0" encoding="UTF-8" standalone="no"?>
<!-- Created with Inkscape (http://www.inkscape.org/) -->
<svg
   xmlns:svg="http://www.w3.org/2000/svg"
   xmlns="http://www.w3.org/2000/svg"
   version="1.0"
   width="637.97272"
   height="311.57016"
   id="svg2590">
  <defs
     id="defs2592">
    <clipPath
       id="clipPath175">
      <path
         d="M 113.38,597.05 L 205.95,597.05 L 205.95,552.54 L 113.38,552.54 L 113.38,597.05 z"
         id="path177" />
    </clipPath>
  </defs>
  <g
     transform="translate(224.97968,-250.51871)"
     id="layer1">
    <path
       d="M -224.97968,250.51871 L 412.99306,250.51871 L 412.99306,562.08886 L -224.97968,562.08886 L -224.97968,250.51871 z"
       id="path179"
       style="fill:#e00024;fill-opacity:1;fill-rule:nonzero;stroke:none" />
    <path
       d="M 62.129548,353.86038 L 88.409433,353.86038 L 88.409433,372.74114 L 88.79922,372.74114 C 93.85962,359.95337 107.48851,351.10451 120.91908,351.10451 C 122.86802,351.10451 119.3189,351.50114 121.06952,352.08924 L 121.06952,378.04772 C 118.53932,377.45962 120.33782,377.06299 117.02804,377.06299 C 96.779607,377.06299 89.77027,391.81337 89.77027,409.70941 L 89.77027,455.52654 L 62.129548,455.52654 L 62.129548,353.86038"
       id="path181"
       style="fill:#ffffff;fill-opacity:1;fill-rule:nonzero;stroke:none" />
    <path
       d="M 128.48232,353.86038 L 153.77064,353.86038 L 153.77064,455.52654 L 128.48232,455.52654 L 128.48232,353.86038 z"
       id="path183"
       style="fill:#ffffff;fill-opacity:1;fill-rule:nonzero;stroke:none" />
    <path
       d="M 128.48232,315.12097 L 153.77064,315.12097 L 153.77064,338.12527 L 128.48232,338.12527 L 128.48232,315.12097 z"
       id="path185"
       style="fill:#ffffff;fill-opacity:1;fill-rule:nonzero;stroke:none" />
    <path
       d="M 164.54109,315.12097 L 191.00561,315.12097 L 191.00561,455.52654 L 164.54109,455.52654 L 164.54109,315.12097 z"
       id="path187"
       style="fill:#ffffff;fill-opacity:1;fill-rule:nonzero;stroke:none" />
    <path
       d="M 201.93334,353.85354 L 227.22166,353.85354 L 227.22166,455.5197 L 201.93334,455.5197 L 201.93334,353.85354 z"
       id="path189"
       style="fill:#ffffff;fill-opacity:1;fill-rule:nonzero;stroke:none" />
    <path
       d="M 201.93334,315.11413 L 227.22166,315.11413 L 227.22166,338.12527 L 201.93334,338.12527 L 201.93334,315.11413 z"
       id="path191"
       style="fill:#ffffff;fill-opacity:1;fill-rule:nonzero;stroke:none" />
    <path
       d="M 28.471055,404.76526 C 28.471055,388.64037 22.04298,371.92737 4.3315825,371.92737 C -13.776441,371.92737 -19.616415,388.25058 -19.616415,404.76526 C -19.616415,421.28678 -13.386653,437.01505 4.5230571,437.01505 C 22.63108,437.01505 28.471055,421.28678 28.471055,404.76526 z M -46.286087,353.64155 L -20.006203,353.64155 L -20.006203,366.62079 C -12.996866,355.80248 -2.0964922,350.88569 10.363031,350.88569 C 41.901628,350.88569 56.111776,376.64585 56.111776,405.55167 C 56.111776,432.69319 41.320366,458.05674 11.922181,458.05674 C -0.14755466,458.05674 -11.636029,452.75016 -18.24874,442.71826 L -18.638527,491.09294 L -46.286087,491.09294 L -46.286087,353.64155"
       id="path193"
       style="fill:#ffffff;fill-opacity:1;fill-rule:evenodd;stroke:none" />
    <path
       d="M -84.020254,405.7705 C -88.697704,409.90088 -99.604916,410.0992 -108.1734,411.67202 C -116.73505,413.44316 -124.52396,416.3905 -124.52396,426.62071 C -124.52396,437.0424 -116.54358,439.59312 -107.5853,439.59312 C -85.97603,439.59312 -84.020254,422.29202 -84.020254,416.19219 L -84.020254,405.7705 z M -146.70082,385.12544 C -145.14167,358.96865 -124.32565,351.10451 -101.74533,351.10451 C -81.695205,351.10451 -57.555733,355.63152 -57.555733,380.01033 L -57.555733,432.91202 C -57.555733,442.15067 -56.584683,451.39616 -54.054484,455.52654 L -80.908792,455.52654 C -81.879841,452.38088 -82.659416,449.03692 -82.850891,445.69295 C -91.610853,454.9316 -105.6432,458.27556 -117.90441,458.27556 C -136.98349,458.27556 -152.16468,448.64029 -152.16468,427.79692 C -152.16468,404.79261 -135.03455,399.28772 -117.90441,396.92164 C -100.96575,394.37093 -85.196455,394.95903 -85.196455,383.55261 C -85.196455,371.5581 -93.375154,369.78696 -103.10616,369.78696 C -113.62359,369.78696 -120.43461,374.11565 -121.4125,385.12544 L -146.70082,385.12544"
       id="path195"
       style="fill:#ffffff;fill-opacity:1;fill-rule:evenodd;stroke:none" />
    <path
       d="M 301.37018,405.74999 C 296.69957,409.88037 285.79236,410.07868 277.22387,411.65151 C 268.65538,413.42265 260.87331,416.36999 260.87331,426.6002 C 260.87331,437.01505 268.8537,439.5726 277.80513,439.5726 C 299.41441,439.5726 301.37018,422.27151 301.37018,416.17167 L 301.37018,405.74999 z M 238.69645,385.10493 C 240.2556,358.94813 261.06479,351.084 283.64511,351.084 C 303.70207,351.084 327.84154,355.611 327.84154,379.98982 L 327.84154,432.89151 C 327.84154,442.13015 328.81259,451.37564 331.34279,455.50602 L 304.48848,455.50602 C 303.51059,452.35353 302.73786,449.0164 302.53954,445.67243 C 293.77958,454.91108 279.75407,458.25505 267.49286,458.25505 C 248.41379,458.25505 233.22575,448.61978 233.22575,427.7764 C 233.22575,404.7721 250.35589,399.26037 267.49286,396.90113 C 284.42468,394.35041 300.19398,394.93851 300.19398,383.5321 C 300.19398,371.53758 292.01528,369.76645 282.28427,369.76645 C 271.77368,369.76645 264.95582,374.09514 263.98477,385.10493 L 238.69645,385.10493"
       id="path197"
       style="fill:#ffffff;fill-opacity:1;fill-rule:evenodd;stroke:none" />
  </g>
</svg>
