<?xml version="1.0" encoding="UTF-8" standalone="no"?>
<svg
   xmlns:osb="http://www.openswatchbook.org/uri/2009/osb"
   xmlns:dc="http://purl.org/dc/elements/1.1/"
   xmlns:cc="http://creativecommons.org/ns#"
   xmlns:rdf="http://www.w3.org/1999/02/22-rdf-syntax-ns#"
   xmlns:svg="http://www.w3.org/2000/svg"
   xmlns="http://www.w3.org/2000/svg"
   xmlns:sodipodi="http://sodipodi.sourceforge.net/DTD/sodipodi-0.dtd"
   xmlns:inkscape="http://www.inkscape.org/namespaces/inkscape"
   enable-background="new 0 0 32 32"
   height="32px"
   id="Слой_1"
   version="1.1"
   viewBox="0 0 32 32"
   width="32px"
   xml:space="preserve"
   sodipodi:docname="back2.svg"
   inkscape:version="0.92.1 r15371"><metadata
     id="metadata3698"><rdf:RDF><cc:Work
         rdf:about=""><dc:format>image/svg+xml</dc:format><dc:type
           rdf:resource="http://purl.org/dc/dcmitype/StillImage" /><dc:title></dc:title></cc:Work></rdf:RDF></metadata><defs
     id="defs3696"><linearGradient
       id="linearGradient4517"
       osb:paint="solid"><stop
         style="stop-color:#000000;stop-opacity:1;"
         offset="0"
         id="stop4515" /></linearGradient></defs><sodipodi:namedview
     pagecolor="#ffffff"
     bordercolor="#666666"
     borderopacity="1"
     objecttolerance="10"
     gridtolerance="10"
     guidetolerance="10"
     inkscape:pageopacity="0"
     inkscape:pageshadow="2"
     inkscape:window-width="1920"
     inkscape:window-height="1017"
     id="namedview3694"
     showgrid="false"
     inkscape:zoom="26.0625"
     inkscape:cx="9.4964029"
     inkscape:cy="12.930456"
     inkscape:window-x="-8"
     inkscape:window-y="-8"
     inkscape:window-maximized="1"
     inkscape:current-layer="Слой_1" /><path
     d="M31.866,29.046c0.05-0.336,1.109-8.41-3.639-13.966  c-2.917-3.414-7.418-5.283-13.23-5.468l-0.031-5.613c0-0.386-0.223-0.737-0.571-0.903c-0.349-0.163-0.762-0.116-1.061,0.128  L0.367,13.866C0.135,14.056,0,14.34-0.001,14.64c-0.001,0.3,0.133,0.584,0.365,0.774l12.968,10.743  c0.298,0.247,0.715,0.298,1.061,0.132c0.351-0.165,0.573-0.518,0.573-0.904l0.031-5.739c14.009-0.01,15.005,8.966,15.039,9.337  c0.043,0.504,0.362,0.897,0.868,0.913c0.012,0.001,0.023,0.001,0.034,0.001C31.433,29.897,31.792,29.536,31.866,29.046z   M13.261,17.922c-0.188,0.188-0.294,0.442-0.294,0.708v4.638L2.578,14.646l10.389-8.542v4.493c0,0.553,0.447,1,1,1  c5.69,0,10.037,1.648,12.735,4.776c2.029,2.354,2.962,5.235,3.281,7.626c-2.184-2.984-6.008-6.363-16.015-6.369c0,0-0.001,0-0.002,0  C13.702,17.63,13.448,17.735,13.261,17.922z"
     id="Arrow_Left_1_"
     style="fill:#efefef;fill-opacity:1;"
     fill="#efefef" /><g
     id="g3681" /><g
     id="g3683" /><g
     id="g3685" /><g
     id="g3687" /><g
     id="g3689" /><g
     id="g3691" /><path
     style="fill:#efefef;fill-opacity:1;stroke-width:0.04284154"
     d="m 30.859888,25.326416 c -2.47583,-3.546431 -6.019657,-5.641177 -10.989836,-6.496052 -1.441039,-0.24786 -2.826826,-0.375808 -4.506001,-0.416029 -0.838157,-0.02008 -1.226447,-0.01312 -1.348065,0.02415 -0.249617,0.07649 -0.498701,0.308931 -0.629188,0.58713 l -0.11337,0.2417 v 2.86962 c 0,1.815491 -0.01433,2.864083 -0.03901,2.854549 C 13.194758,24.976157 12.32796,24.178292 7.1196109,19.362956 5.5100146,17.874813 3.7618861,16.260501 3.2348851,15.775594 2.7078832,15.290686 2.280274,14.88004 2.2846429,14.86305 2.2890091,14.846055 3.0689586,14.121803 4.0178572,13.253593 4.9667532,12.385386 7.4237419,10.13592 9.4778295,8.2547797 11.531915,6.3736413 13.226234,4.8344298 13.24298,4.8343095 c 0.01675,-1.202e-4 0.03063,1.24596 0.03084,2.7690672 l 4.06e-4,2.7692873 0.09596,0.226063 c 0.116344,0.274097 0.269286,0.440781 0.512169,0.558192 0.152504,0.07372 0.316778,0.09302 0.99457,0.116847 2.136746,0.07512 3.668352,0.286686 5.297596,0.73177 2.934569,0.801683 5.29835,2.228875 7.092498,4.282275 2.011777,2.302479 3.354576,5.39544 3.908159,9.001934 0.04536,0.295502 0.07636,0.544083 0.0689,0.552399 -0.0075,0.0083 -0.180344,-0.223764 -0.384176,-0.515737 z"
     id="path4521"
     inkscape:connector-curvature="0" /></svg>