<?xml version="1.0" standalone="no"?>
<!DOCTYPE svg PUBLIC "-//W3C//DTD SVG 20010904//EN"
 "http://www.w3.org/TR/2001/REC-SVG-20010904/DTD/svg10.dtd">
<svg version="1.0" xmlns="http://www.w3.org/2000/svg"
 width="759.000000pt" height="597.000000pt" viewBox="0 0 759.000000 597.000000"
 preserveAspectRatio="xMidYMid meet">
<metadata>
Created by potrace 1.10, written by Peter Selinger 2001-2011
</metadata>
<g transform="translate(0.000000,597.000000) scale(0.100000,-0.100000)"
fill="#ff0000" stroke="none">
<path d="M7400 5916 c-69 -36 -93 -46 -107 -46 -8 0 -27 -6 -41 -13 -57 -29
-98 -47 -124 -53 -16 -3 -28 -10 -28 -15 0 -5 -11 -9 -24 -9 -13 0 -29 -7 -36
-15 -7 -8 -19 -15 -27 -15 -15 0 -65 -20 -116 -46 -16 -8 -33 -14 -39 -14 -5
0 -26 -7 -46 -16 -21 -8 -53 -22 -72 -31 -19 -8 -48 -21 -63 -29 -16 -8 -35
-14 -44 -14 -8 0 -27 -6 -41 -13 -15 -8 -45 -22 -67 -31 -22 -10 -53 -24 -68
-32 -16 -8 -37 -14 -47 -14 -9 0 -23 -7 -30 -15 -7 -8 -19 -15 -27 -15 -8 0
-31 -7 -51 -16 -21 -8 -50 -21 -67 -28 -16 -8 -50 -21 -75 -31 -52 -20 -97
-38 -143 -59 -17 -9 -44 -18 -60 -22 -15 -3 -30 -10 -33 -15 -3 -5 -13 -9 -23
-9 -10 0 -24 -7 -31 -15 -7 -8 -20 -15 -29 -15 -9 0 -29 -7 -45 -15 -15 -8
-36 -15 -46 -15 -10 0 -23 -7 -30 -15 -7 -8 -19 -15 -27 -15 -8 0 -31 -7 -51
-16 -21 -8 -53 -22 -72 -31 -19 -8 -48 -21 -63 -29 -16 -8 -35 -14 -44 -14 -8
0 -27 -6 -41 -13 -57 -29 -98 -47 -124 -53 -16 -3 -28 -10 -28 -15 0 -5 -11
-9 -24 -9 -13 0 -29 -7 -36 -15 -7 -8 -19 -15 -27 -15 -15 0 -65 -20 -116 -46
-16 -8 -33 -14 -39 -14 -5 0 -26 -7 -46 -16 -21 -8 -53 -22 -72 -31 -19 -8
-48 -21 -63 -29 -16 -8 -35 -14 -44 -14 -8 0 -27 -6 -41 -13 -15 -8 -45 -22
-67 -31 -22 -10 -53 -24 -68 -32 -16 -8 -37 -14 -47 -14 -9 0 -23 -7 -30 -15
-7 -8 -19 -15 -27 -15 -8 0 -31 -7 -51 -16 -21 -8 -53 -22 -72 -31 -19 -8 -48
-21 -63 -29 -16 -8 -35 -14 -44 -14 -8 0 -27 -6 -41 -13 -58 -29 -98 -47 -125
-53 -15 -3 -30 -10 -33 -15 -3 -5 -13 -9 -23 -9 -10 0 -24 -7 -31 -15 -7 -8
-19 -15 -27 -15 -15 0 -65 -20 -116 -46 -16 -8 -33 -14 -39 -14 -5 0 -26 -7
-46 -16 -21 -8 -53 -22 -72 -31 -19 -8 -48 -21 -63 -29 -16 -8 -35 -14 -44
-14 -8 0 -27 -6 -41 -13 -57 -29 -98 -47 -124 -53 -16 -3 -28 -10 -28 -15 0
-5 -11 -9 -24 -9 -13 0 -29 -7 -36 -15 -7 -8 -19 -15 -27 -15 -15 0 -65 -20
-116 -46 -16 -8 -33 -14 -39 -14 -5 0 -26 -7 -46 -16 -21 -8 -53 -22 -72 -31
-19 -8 -48 -21 -63 -29 -16 -8 -35 -14 -44 -14 -8 0 -27 -6 -41 -14 -15 -7
-49 -23 -77 -35 -27 -12 -58 -26 -67 -32 -10 -5 -26 -9 -37 -9 -10 0 -24 -7
-31 -15 -7 -8 -19 -15 -27 -15 -8 0 -31 -7 -51 -16 -21 -8 -50 -21 -67 -28
-16 -8 -50 -21 -75 -31 -61 -23 -98 -39 -140 -58 -19 -9 -47 -19 -62 -23 -16
-3 -28 -10 -28 -15 0 -5 -11 -9 -24 -9 -13 0 -29 -7 -36 -15 -7 -8 -20 -15
-29 -15 -9 0 -29 -7 -45 -15 -15 -8 -36 -15 -46 -15 -10 0 -23 -7 -30 -15 -7
-8 -19 -15 -27 -15 -8 0 -31 -7 -51 -16 -21 -8 -53 -22 -72 -31 -19 -8 -48
-21 -63 -29 -16 -8 -35 -14 -44 -14 -8 0 -27 -6 -41 -14 -62 -32 -120 -56
-135 -56 -9 0 -19 -4 -22 -10 -3 -5 -14 -10 -24 -10 -10 0 -24 -7 -31 -15 -7
-8 -20 -15 -29 -15 -9 0 -29 -7 -45 -15 -15 -8 -36 -15 -46 -15 -10 0 -23 -7
-30 -15 -7 -8 -20 -15 -29 -15 -9 0 -29 -7 -45 -15 -15 -8 -36 -15 -46 -15
-10 0 -23 -7 -30 -15 -7 -8 -20 -15 -29 -15 -10 0 -26 -7 -37 -15 -10 -8 -27
-15 -37 -15 -11 0 -31 -6 -45 -13 -15 -8 -45 -22 -67 -31 -22 -10 -53 -24 -68
-32 -16 -8 -37 -14 -47 -14 -9 0 -23 -7 -30 -15 -7 -8 -19 -15 -27 -15 -8 0
-31 -7 -51 -16 -21 -8 -53 -22 -72 -31 -19 -8 -48 -21 -63 -29 -16 -8 -35 -14
-44 -14 -8 0 -27 -6 -41 -14 -15 -7 -58 -28 -97 -47 -72 -34 -127 -68 -133
-81 -2 -5 -8 -8 -14 -8 -13 0 -74 -62 -110 -110 -75 -101 -112 -206 -112 -320
1 -67 17 -157 33 -173 6 -6 11 -17 11 -25 0 -28 142 -179 366 -392 44 -41 147
-140 229 -220 83 -80 184 -174 225 -210 78 -68 161 -144 240 -220 25 -25 71
-65 101 -90 76 -63 153 -133 162 -147 6 -10 70 -13 262 -13 241 0 281 5 240
27 -8 5 -40 33 -72 63 -32 30 -100 90 -151 133 -51 43 -112 97 -135 121 -23
23 -69 63 -102 88 -33 25 -86 72 -118 103 -32 31 -86 79 -120 107 -34 27 -92
77 -128 111 -36 34 -88 80 -114 102 -59 47 -117 99 -160 140 -17 17 -53 48
-80 70 -65 53 -124 104 -155 136 -14 14 -53 47 -88 73 -35 27 -68 60 -73 74
-6 15 -15 30 -21 33 -19 12 -15 124 5 146 9 11 17 26 17 34 0 18 60 75 120
114 47 31 93 51 149 65 18 5 38 13 44 19 6 6 20 11 32 11 12 0 30 7 41 15 10
8 28 15 39 15 11 0 32 6 47 14 15 8 40 17 57 21 17 4 33 11 36 16 4 5 16 9 29
9 12 0 31 7 42 15 10 8 30 15 44 15 14 0 34 7 44 15 11 8 32 15 47 15 14 0 32
6 38 14 7 8 30 17 52 21 21 4 41 11 45 16 3 5 13 9 22 9 9 0 29 6 44 14 15 8
40 17 57 21 17 4 33 11 36 16 4 5 19 9 34 9 16 0 34 7 41 15 7 8 25 15 39 15
15 0 36 7 47 15 10 8 25 15 32 15 8 0 28 6 45 13 48 20 98 38 136 47 18 5 38
13 44 19 6 6 20 11 32 11 12 0 30 7 41 15 10 8 31 15 45 15 14 0 34 7 45 15
10 8 25 15 32 15 8 0 28 6 45 13 42 18 93 36 137 49 19 5 39 14 45 19 5 5 18
9 30 9 12 0 30 7 41 15 10 8 31 15 45 15 14 0 34 7 45 15 10 8 25 15 32 15 8
0 28 6 45 13 48 20 98 38 136 47 18 5 38 13 44 19 6 6 20 11 32 11 12 0 30 7
41 15 10 8 28 15 39 15 11 0 32 6 47 14 15 8 40 17 57 21 17 4 33 11 36 16 4
5 16 9 29 9 12 0 31 7 42 15 10 8 28 15 40 15 11 0 29 7 40 15 10 8 30 15 44
15 14 0 35 6 46 14 11 8 37 17 57 21 21 4 40 11 43 16 3 5 13 9 22 9 9 0 30 7
46 15 15 8 36 15 45 15 10 0 26 7 37 15 10 8 28 15 40 15 11 0 29 7 40 15 10
8 31 15 45 15 14 0 34 7 45 15 10 8 26 15 34 15 8 0 28 7 44 15 15 8 36 15 45
15 9 0 29 7 45 15 15 8 36 15 45 15 10 0 26 7 37 15 10 8 28 15 40 15 11 0 29
7 40 15 10 8 33 15 50 15 17 0 37 7 44 15 7 8 19 15 27 15 8 0 29 6 46 13 48
20 98 38 136 47 18 5 38 13 44 19 6 6 20 11 32 11 12 0 30 7 41 15 10 8 31 15
45 15 14 0 34 7 45 15 10 8 26 15 34 15 8 0 28 7 44 15 15 8 36 15 45 15 10 0
26 7 37 15 10 8 31 15 45 15 14 0 34 7 45 15 10 8 28 15 40 15 11 0 29 7 40
15 10 8 28 15 39 15 11 0 32 6 47 14 15 8 40 17 57 21 17 4 33 11 36 16 4 5
16 9 29 9 12 0 31 7 42 15 10 8 31 15 45 15 15 0 32 7 39 15 7 8 27 15 45 15
18 0 38 7 45 15 7 8 22 15 34 15 11 0 33 6 48 14 15 8 40 17 57 21 17 4 33 11
36 16 4 5 14 9 23 9 9 0 30 7 46 15 15 8 36 15 45 15 10 0 26 7 37 15 10 8 31
15 45 15 14 0 34 7 45 15 10 8 26 15 34 15 8 0 28 7 44 15 15 8 36 15 45 15 9
0 29 7 45 15 15 8 36 15 45 15 10 0 26 7 37 15 10 8 28 15 40 15 11 0 29 7 40
15 10 8 31 15 45 15 14 0 34 7 45 15 10 8 25 15 32 15 8 0 28 6 45 13 48 20
98 38 136 47 18 5 38 13 44 19 6 6 20 11 32 11 12 0 30 7 41 15 10 8 26 15 34
15 8 0 28 7 44 15 15 8 36 15 46 15 10 0 23 7 30 15 7 8 18 15 25 15 11 0 107
47 243 119 14 8 38 25 52 38 13 12 31 23 39 23 20 0 228 209 252 254 11 21 26
45 34 53 8 8 15 20 15 27 0 8 7 19 15 26 8 7 15 23 15 35 0 13 6 36 14 52 21
43 38 94 43 133 3 19 9 40 13 45 5 6 11 28 15 50 4 22 13 55 22 73 24 55 5 76
-47 48z"/>
<path d="M6934 4655 c-10 -8 -27 -15 -37 -15 -11 0 -33 -6 -50 -14 -18 -7 -66
-23 -107 -35 -41 -12 -83 -27 -92 -32 -10 -5 -28 -9 -41 -9 -13 0 -32 -7 -43
-15 -10 -8 -31 -15 -45 -15 -14 0 -34 -7 -45 -15 -10 -8 -31 -15 -45 -15 -14
0 -34 -7 -45 -15 -10 -8 -31 -15 -45 -15 -14 0 -34 -7 -45 -15 -10 -8 -33 -15
-50 -15 -17 0 -37 -7 -44 -15 -7 -8 -27 -15 -44 -15 -18 0 -41 -7 -52 -15 -10
-8 -31 -15 -45 -15 -14 0 -34 -7 -45 -15 -10 -8 -29 -15 -41 -15 -12 0 -37 -6
-55 -14 -50 -20 -99 -37 -143 -47 -22 -6 -44 -14 -50 -20 -5 -5 -18 -9 -30 -9
-11 0 -33 -7 -49 -15 -15 -8 -35 -15 -43 -15 -8 0 -29 -6 -46 -13 -42 -18
-123 -43 -164 -52 -18 -4 -35 -11 -38 -16 -4 -5 -19 -9 -34 -9 -15 0 -36 -7
-47 -15 -10 -8 -31 -15 -45 -15 -14 0 -34 -7 -45 -15 -10 -8 -33 -15 -50 -15
-17 0 -37 -7 -44 -15 -7 -8 -24 -15 -39 -15 -14 0 -39 -7 -55 -15 -15 -8 -36
-15 -45 -15 -9 0 -29 -7 -45 -15 -15 -8 -36 -15 -45 -15 -9 0 -29 -7 -45 -15
-15 -8 -38 -15 -50 -15 -12 0 -31 -7 -42 -15 -10 -8 -30 -15 -44 -15 -14 0
-36 -7 -50 -15 -14 -8 -34 -14 -45 -15 -11 0 -33 -7 -49 -15 -15 -8 -36 -15
-45 -15 -9 0 -29 -7 -45 -15 -15 -8 -36 -15 -45 -15 -9 0 -29 -7 -45 -15 -15
-8 -36 -15 -45 -15 -9 0 -29 -7 -45 -15 -15 -8 -38 -15 -50 -15 -11 0 -34 -7
-50 -15 -15 -8 -38 -15 -50 -15 -12 0 -31 -7 -42 -15 -10 -8 -33 -15 -50 -15
-17 0 -37 -7 -44 -15 -7 -8 -25 -15 -39 -15 -15 0 -36 -7 -47 -15 -10 -8 -31
-15 -45 -15 -14 0 -34 -7 -45 -15 -10 -8 -31 -15 -45 -15 -14 0 -34 -7 -45
-15 -10 -8 -33 -15 -50 -15 -16 0 -39 -7 -50 -15 -10 -8 -28 -15 -39 -15 -11
0 -33 -7 -49 -15 -15 -8 -38 -15 -50 -15 -12 0 -31 -7 -42 -15 -10 -8 -30 -15
-44 -15 -14 0 -36 -7 -50 -15 -14 -8 -34 -14 -45 -15 -11 0 -33 -7 -49 -15
-15 -8 -36 -15 -45 -15 -9 0 -29 -7 -45 -15 -15 -8 -36 -15 -45 -15 -9 0 -28
-6 -43 -14 -14 -8 -45 -17 -67 -21 -23 -4 -43 -11 -47 -16 -3 -5 -15 -9 -27
-9 -12 0 -35 -7 -51 -15 -15 -8 -38 -15 -50 -15 -12 0 -31 -7 -42 -15 -10 -8
-31 -15 -45 -15 -14 0 -34 -7 -45 -15 -10 -8 -31 -15 -45 -15 -14 0 -34 -7
-45 -15 -10 -8 -31 -15 -45 -15 -14 0 -34 -7 -45 -15 -10 -8 -33 -15 -50 -15
-16 0 -39 -7 -50 -15 -10 -8 -31 -15 -45 -15 -14 0 -34 -7 -45 -15 -10 -8 -31
-15 -45 -15 -14 0 -34 -7 -45 -15 -10 -8 -30 -15 -44 -15 -14 0 -34 -6 -45
-14 -11 -7 -39 -17 -62 -21 -24 -4 -45 -11 -49 -16 -3 -5 -15 -9 -27 -9 -12 0
-35 -7 -51 -15 -15 -8 -35 -15 -43 -15 -8 0 -29 -6 -46 -14 -18 -7 -66 -23
-107 -35 -41 -12 -83 -27 -92 -32 -10 -5 -28 -9 -41 -9 -13 0 -32 -7 -43 -15
-10 -8 -31 -15 -45 -15 -14 0 -34 -7 -45 -15 -10 -8 -31 -15 -45 -15 -14 0
-34 -7 -45 -15 -10 -8 -31 -15 -45 -15 -14 0 -34 -7 -45 -15 -10 -8 -32 -15
-49 -15 -16 0 -39 -7 -49 -15 -11 -8 -32 -15 -46 -15 -14 0 -35 -7 -46 -15
-10 -8 -31 -15 -45 -15 -14 0 -34 -7 -45 -15 -10 -8 -31 -15 -45 -15 -14 0
-34 -7 -45 -15 -10 -8 -29 -15 -41 -15 -33 0 -183 -67 -183 -82 0 -3 -9 -10
-20 -13 -11 -3 -20 -15 -20 -25 0 -10 -4 -22 -10 -25 -13 -8 -13 -52 0 -60 6
-3 10 -14 10 -23 0 -22 63 -91 119 -131 49 -34 90 -39 135 -16 15 8 40 15 55
15 14 0 39 7 55 15 15 8 40 15 55 15 14 0 39 7 55 15 15 8 38 15 50 15 11 0
41 6 66 14 25 8 68 21 96 30 29 9 62 16 75 16 13 0 37 7 53 15 15 8 40 15 55
15 14 0 39 7 55 15 15 8 40 15 55 15 14 0 39 7 55 15 15 8 40 15 55 15 14 0
39 7 55 15 15 8 43 15 60 15 18 0 41 7 52 15 10 8 29 15 40 15 12 0 46 7 75
16 49 14 145 41 177 50 6 2 12 11 12 21 2 62 79 123 155 123 22 0 53 7 69 15
15 8 39 15 52 15 14 0 41 7 61 15 19 8 47 15 62 15 14 0 39 7 55 15 15 8 40
15 55 15 14 0 39 7 55 15 15 8 38 15 50 15 11 0 41 6 66 14 25 8 68 21 96 30
29 9 62 16 75 16 13 0 37 7 53 15 15 8 43 15 60 15 17 0 40 6 51 14 11 7 41
16 67 19 26 4 56 11 65 16 17 9 38 15 161 41 23 5 51 14 61 20 11 5 31 10 46
10 14 0 38 6 53 14 15 7 48 16 74 20 26 4 50 11 53 17 4 5 21 9 38 9 18 0 45
7 61 15 15 8 42 15 60 15 17 1 42 7 56 15 14 8 39 14 55 15 17 0 43 7 59 15
15 8 42 15 58 15 16 0 42 6 56 14 15 8 48 18 74 21 26 3 50 10 53 16 4 5 21 9
38 9 18 0 45 7 61 15 15 8 39 15 52 15 14 0 41 7 61 15 19 8 47 15 62 15 14 0
39 7 55 15 15 8 40 15 55 15 14 0 39 7 55 15 15 8 38 15 50 15 11 0 41 6 66
14 25 8 68 21 96 30 29 9 62 16 75 16 13 0 36 6 50 14 14 7 48 17 75 21 27 4
54 10 59 15 6 4 31 11 57 14 26 4 50 11 53 17 4 5 21 9 38 9 18 0 45 7 61 15
15 8 42 15 60 15 17 1 42 7 56 15 14 8 38 14 53 15 15 0 40 6 55 14 15 7 48
16 74 20 26 4 50 11 53 17 4 5 20 9 36 9 16 0 46 7 66 15 19 8 47 15 62 15 14
0 39 7 55 15 15 8 40 15 55 15 14 0 39 7 55 15 15 8 36 15 45 15 10 0 26 7 37
15 10 8 26 15 35 15 9 0 22 7 29 15 7 8 18 15 26 15 22 0 143 86 232 165 19
17 57 59 85 95 28 36 57 69 64 73 7 4 13 14 13 22 0 7 3 15 8 17 13 6 52 67
52 82 0 8 4 17 9 20 12 8 81 144 81 161 0 7 7 18 15 25 8 7 15 21 15 32 0 10
7 30 16 43 25 38 5 58 -32 30z"/>
<path d="M6404 3635 c-10 -8 -35 -15 -54 -15 -20 0 -44 -6 -55 -14 -11 -7 -42
-16 -68 -19 -27 -4 -54 -10 -60 -14 -12 -8 -71 -23 -172 -44 -27 -6 -54 -15
-59 -20 -6 -5 -26 -9 -45 -9 -20 -1 -47 -7 -61 -15 -14 -8 -41 -14 -61 -15
-19 0 -44 -7 -55 -15 -10 -8 -35 -15 -54 -15 -19 0 -46 -7 -60 -15 -14 -8 -40
-14 -58 -15 -19 0 -46 -6 -60 -14 -15 -8 -48 -18 -74 -21 -26 -3 -50 -10 -53
-16 -4 -5 -20 -9 -37 -9 -16 0 -44 -6 -61 -14 -18 -8 -53 -17 -79 -21 -26 -3
-50 -10 -53 -16 -4 -5 -23 -9 -43 -9 -20 -1 -48 -7 -62 -15 -14 -8 -38 -14
-55 -15 -16 0 -43 -7 -59 -15 -15 -8 -42 -15 -60 -15 -17 -1 -42 -7 -56 -15
-14 -8 -38 -14 -53 -15 -16 0 -43 -6 -60 -14 -18 -8 -53 -17 -79 -21 -26 -3
-50 -10 -53 -16 -4 -5 -20 -9 -36 -9 -16 0 -46 -7 -66 -15 -19 -8 -46 -15 -59
-15 -12 0 -35 -5 -51 -12 -31 -13 -112 -34 -187 -48 -27 -5 -54 -14 -60 -20
-5 -5 -26 -10 -45 -10 -20 -1 -47 -7 -61 -15 -14 -8 -40 -14 -58 -15 -19 0
-46 -6 -60 -14 -15 -8 -48 -18 -74 -21 -26 -3 -50 -10 -53 -16 -4 -5 -21 -9
-38 -9 -18 0 -45 -7 -61 -15 -15 -8 -42 -15 -60 -15 -17 0 -44 -7 -60 -15 -15
-8 -42 -15 -60 -15 -17 -1 -42 -7 -56 -15 -14 -8 -41 -14 -61 -15 -19 0 -44
-7 -55 -15 -10 -8 -35 -15 -54 -15 -19 0 -47 -6 -61 -13 -14 -8 -44 -17 -68
-21 -23 -3 -50 -11 -59 -16 -9 -5 -38 -12 -64 -15 -26 -3 -50 -10 -53 -16 -4
-5 -21 -9 -38 -9 -18 0 -45 -7 -61 -15 -15 -8 -42 -15 -60 -15 -17 0 -44 -7
-60 -15 -15 -8 -39 -15 -52 -15 -14 0 -41 -7 -61 -15 -19 -8 -50 -15 -67 -15
-17 0 -40 -6 -51 -14 -11 -7 -42 -16 -69 -19 -27 -4 -54 -11 -60 -17 -5 -5
-25 -10 -44 -10 -19 0 -46 -6 -60 -14 -15 -8 -48 -18 -74 -21 -26 -3 -50 -10
-53 -16 -4 -5 -20 -9 -37 -9 -16 0 -44 -6 -61 -14 -18 -8 -53 -17 -79 -21 -26
-3 -50 -10 -53 -16 -4 -5 -20 -9 -36 -9 -16 0 -46 -7 -66 -15 -19 -8 -47 -15
-62 -15 -14 0 -39 -7 -55 -15 -15 -8 -42 -15 -58 -15 -16 0 -42 -6 -56 -14
-15 -8 -48 -18 -74 -21 -26 -3 -50 -10 -53 -16 -4 -5 -20 -9 -36 -9 -16 0 -44
-6 -62 -14 -18 -7 -54 -16 -79 -20 -26 -4 -50 -11 -53 -17 -4 -5 -18 -9 -33
-9 -15 0 -47 -7 -72 -15 -25 -8 -62 -17 -82 -20 -21 -3 -38 -12 -38 -19 0 -12
151 -162 226 -223 37 -31 42 -33 104 -27 36 3 88 12 115 19 59 16 155 33 245
44 36 4 75 13 87 19 12 7 41 12 65 12 24 1 61 7 83 15 22 8 56 15 75 15 19 0
51 5 70 11 39 12 162 35 262 49 37 5 76 13 87 19 11 6 39 11 63 11 24 1 61 7
83 15 22 8 59 15 82 15 23 0 54 5 70 12 15 6 58 14 95 18 82 9 118 30 118 69
0 34 46 74 97 85 18 4 35 12 38 17 4 5 28 9 55 9 27 0 67 6 87 14 21 8 67 17
103 20 35 3 69 11 74 16 6 6 34 10 63 10 30 0 70 7 90 15 19 8 54 15 77 15 22
1 59 7 81 15 22 8 58 15 80 15 22 1 58 7 80 15 22 8 61 15 87 15 26 0 59 5 75
11 31 13 152 36 253 48 36 4 75 13 87 19 12 7 40 12 62 12 22 0 60 6 83 14 24
8 72 16 107 19 35 3 68 10 74 16 6 6 34 11 61 11 28 1 69 7 91 15 22 8 58 15
80 15 22 1 58 7 80 15 22 8 59 15 82 15 24 0 60 6 80 14 21 8 67 17 102 19 35
3 68 10 74 16 6 6 35 11 64 11 30 0 70 7 90 15 19 8 54 15 77 15 23 0 51 7 62
15 10 8 30 15 44 15 14 0 38 7 54 15 15 8 34 15 41 15 15 0 157 70 165 81 3 3
23 16 44 27 22 12 42 25 45 29 3 4 28 26 56 48 61 49 67 55 135 135 30 36 61
69 68 73 6 4 12 13 12 19 0 6 12 27 28 47 15 20 35 52 46 71 10 19 25 39 32
43 8 4 14 15 14 24 0 8 14 32 30 53 17 21 30 43 30 48 0 19 -16 22 -36 7z"/>
<path d="M5684 2675 c-10 -8 -38 -15 -62 -15 -23 0 -59 -7 -79 -15 -19 -8 -58
-15 -85 -15 -27 0 -59 -6 -71 -12 -21 -12 -109 -30 -232 -47 -34 -4 -70 -13
-82 -19 -12 -7 -41 -12 -65 -12 -24 -1 -61 -7 -83 -15 -22 -8 -57 -15 -77 -15
-21 0 -55 -6 -75 -14 -21 -8 -65 -17 -97 -20 -32 -2 -64 -10 -69 -15 -6 -6
-33 -11 -59 -11 -27 0 -65 -7 -85 -15 -19 -8 -56 -15 -82 -15 -25 0 -59 -7
-75 -15 -15 -8 -49 -15 -75 -15 -25 0 -59 -7 -75 -15 -15 -8 -48 -15 -72 -15
-25 0 -61 -7 -81 -15 -19 -8 -54 -15 -77 -15 -22 -1 -59 -7 -81 -15 -22 -8
-56 -15 -75 -15 -19 -1 -53 -7 -75 -15 -22 -8 -57 -15 -77 -15 -21 0 -55 -6
-75 -14 -21 -8 -65 -17 -97 -20 -32 -2 -64 -10 -69 -15 -6 -6 -31 -11 -56 -11
-26 -1 -64 -7 -86 -15 -22 -8 -58 -15 -80 -15 -22 -1 -58 -7 -80 -15 -22 -8
-57 -15 -77 -15 -21 0 -55 -6 -75 -14 -38 -13 -122 -30 -240 -46 -35 -5 -72
-14 -82 -20 -11 -5 -38 -10 -60 -10 -22 0 -58 -6 -78 -14 -21 -8 -65 -17 -97
-20 -32 -2 -64 -10 -69 -15 -6 -6 -31 -11 -57 -11 -25 -1 -63 -7 -85 -15 -22
-8 -63 -15 -91 -15 -28 0 -59 -6 -70 -15 -10 -8 -41 -15 -67 -15 -26 0 -64 -7
-84 -15 -19 -8 -53 -15 -75 -15 -21 0 -55 -7 -75 -15 -19 -8 -54 -15 -77 -15
-22 -1 -59 -7 -81 -15 -22 -8 -63 -15 -92 -15 -84 0 -80 -15 27 -100 46 -36
101 -85 178 -157 25 -24 52 -43 61 -44 75 -3 180 5 219 17 26 7 79 14 117 14
39 0 97 7 128 15 32 8 86 15 120 15 34 1 82 5 107 11 50 11 241 35 393 49 54
5 112 13 130 18 18 6 76 13 130 16 53 3 106 10 117 16 10 5 57 10 103 10 47 0
102 6 123 13 22 8 86 17 142 21 107 6 142 17 142 41 0 28 36 74 70 89 20 9 60
16 88 16 28 0 69 6 89 14 21 8 72 17 115 19 42 3 85 10 96 16 12 6 50 11 87
11 36 0 82 7 102 15 19 8 64 15 98 15 34 0 80 6 101 13 22 8 76 17 122 20 45
4 91 11 101 17 11 5 44 10 73 10 30 0 80 7 111 15 32 8 72 15 90 15 18 0 45 7
61 15 15 8 33 15 38 15 17 0 103 42 135 66 17 13 37 24 43 24 19 0 259 242
290 293 17 26 39 55 50 64 11 10 20 21 20 26 0 5 14 26 30 47 31 40 28 60 -6
35z"/>
<path d="M3725 1670 c-44 -3 -102 -11 -130 -18 -51 -12 -176 -27 -345 -42 -52
-4 -108 -13 -123 -19 -16 -6 -63 -11 -105 -11 -42 -1 -95 -7 -117 -15 -22 -8
-72 -15 -112 -15 -40 0 -92 -7 -115 -14 -24 -8 -79 -16 -123 -17 -44 -1 -97
-8 -119 -15 -21 -8 -66 -14 -100 -14 -33 0 -79 -5 -101 -11 -22 -6 -88 -14
-146 -19 -59 -4 -116 -13 -127 -19 -11 -6 -45 -11 -76 -11 -60 0 -79 -13 -45
-31 24 -12 159 -133 274 -244 39 -37 80 -71 93 -76 26 -10 2555 -13 2565 -3 7
7 -35 37 -95 69 -21 11 -38 23 -38 27 0 3 -9 9 -20 13 -11 3 -68 39 -127 78
-60 40 -125 81 -145 92 -21 11 -38 23 -38 27 0 3 -10 10 -22 14 -13 4 -39 20
-59 35 -20 16 -39 29 -42 29 -3 0 -34 19 -69 43 -35 23 -80 51 -100 62 -21 11
-38 23 -38 27 0 3 -20 17 -45 29 -25 12 -45 26 -45 30 0 7 -69 31 -80 27 -3 0
-41 -4 -85 -8z"/>
<path d="M2400 938 c-25 -4 -84 -11 -132 -16 -48 -4 -93 -13 -100 -20 -6 -6
-23 -12 -36 -12 -24 0 -61 -14 -141 -53 -50 -25 -171 -138 -171 -160 0 -8 -7
-20 -15 -27 -8 -7 -15 -24 -15 -39 0 -14 -7 -44 -14 -66 -14 -41 -12 -116 5
-147 5 -9 9 -27 9 -40 0 -13 10 -41 22 -63 12 -22 27 -50 33 -63 20 -37 99
-105 151 -131 27 -13 61 -30 76 -38 14 -7 37 -13 50 -13 13 0 29 -5 36 -12 28
-28 507 -27 535 1 6 6 22 11 35 11 21 0 51 12 102 41 8 5 26 14 39 19 40 18
141 122 162 170 12 25 26 54 32 65 6 11 13 61 15 111 7 153 -40 253 -164 348
-33 25 -64 46 -69 46 -4 0 -26 8 -49 19 -73 33 -110 43 -176 51 -36 5 -81 11
-100 15 -63 12 -75 12 -120 3z m140 -183 c9 -8 20 -15 25 -15 4 0 27 -15 50
-34 58 -48 105 -146 105 -217 -1 -54 -28 -151 -49 -172 -6 -6 -11 -16 -11 -22
0 -20 -69 -84 -112 -105 -54 -26 -193 -28 -241 -4 -114 60 -189 218 -165 349
16 87 93 203 134 205 6 0 17 6 24 14 23 29 209 29 240 1z"/>
<path d="M234 880 c-5 -5 -7 -37 -4 -72 l5 -63 73 -3 c71 -3 72 -3 72 -30 3
-225 0 -505 -5 -513 -4 -6 -32 -10 -64 -9 -31 1 -62 1 -69 1 -10 -1 -12 -19
-10 -72 l3 -71 305 1 c168 1 311 1 318 1 8 0 12 21 12 70 l0 70 -74 0 c-45 0
-78 5 -82 11 -9 15 -13 105 -7 147 l5 32 254 0 254 0 0 -89 0 -89 -30 -7 c-16
-4 -51 -5 -78 -4 -26 1 -52 0 -58 -3 -7 -5 -10 -73 -5 -133 1 -6 114 -10 318
-10 201 0 321 4 325 10 13 18 9 135 -4 136 -7 0 -36 0 -63 -1 -28 -1 -63 3
-78 9 l-27 11 0 237 c0 171 4 245 13 263 11 23 20 25 87 30 l75 5 0 70 0 70
-322 3 c-364 3 -335 10 -328 -83 2 -27 4 -53 4 -57 1 -4 38 -8 84 -10 l82 -3
0 -90 0 -90 -243 -5 c-134 -3 -249 -2 -255 2 -13 8 -17 116 -7 158 6 23 12 25
81 30 l74 5 5 63 c4 53 2 65 -12 73 -23 12 -611 12 -624 -1z"/>
<path d="M3170 884 c-11 -4 -15 -20 -15 -69 0 -36 4 -66 10 -66 6 -1 38 -3 71
-4 34 -1 67 -5 73 -9 8 -5 11 -88 11 -276 0 -310 7 -290 -99 -290 l-61 0 0
-60 c0 -41 4 -60 13 -60 6 0 114 -1 239 -3 252 -2 238 -6 238 67 0 54 -12 65
-64 59 -24 -3 -53 0 -65 6 -21 11 -21 16 -21 256 0 164 3 245 10 245 15 0 57
-46 88 -95 14 -22 38 -56 54 -75 15 -19 28 -39 28 -45 0 -5 14 -23 30 -39 17
-16 30 -33 30 -38 0 -8 28 -49 77 -113 5 -5 26 -37 48 -70 22 -33 46 -66 53
-74 7 -8 21 -26 30 -40 9 -14 22 -30 30 -34 7 -5 116 -9 242 -10 183 -2 231 1
235 11 3 8 5 164 5 348 l0 334 33 2 c17 1 41 1 52 0 11 -1 35 1 53 4 l32 5 0
64 c0 59 -2 65 -22 70 -13 3 -124 4 -248 3 l-225 -3 0 -70 0 -70 45 -1 c25 -1
57 -2 73 -2 l27 -2 0 -240 c0 -132 -3 -240 -7 -240 -15 1 -49 36 -73 75 -13
22 -30 46 -38 54 -8 8 -25 33 -39 55 -15 23 -39 57 -55 76 -15 19 -28 39 -28
45 0 5 -14 23 -30 39 -17 16 -30 33 -30 38 0 5 -20 36 -45 68 -25 32 -45 62
-45 67 0 5 -8 16 -17 25 -28 26 -40 43 -47 66 l-7 22 -317 -1 c-174 -1 -324
-3 -332 -5z"/>
<path d="M4734 877 c-3 -8 -4 -41 -2 -73 l3 -59 70 -5 70 -5 5 -259 c6 -297 8
-288 -74 -286 -28 1 -57 1 -63 1 -13 -1 -19 -104 -8 -133 8 -20 992 -14 1015
7 9 8 25 15 36 15 34 0 142 77 171 122 44 69 63 107 63 126 0 10 5 23 11 29 7
7 14 45 17 86 7 121 -32 228 -115 309 -53 52 -157 108 -201 108 -15 0 -34 6
-40 13 -20 19 -950 23 -958 4z m822 -158 c65 -29 160 -128 169 -177 4 -21 11
-43 17 -49 12 -15 6 -86 -13 -133 -19 -48 -97 -124 -152 -149 -39 -18 -65 -21
-179 -21 -73 0 -143 3 -155 6 l-23 6 0 257 c0 187 3 260 12 269 8 8 55 12 144
12 112 0 139 -3 180 -21z"/>
<path d="M6338 883 c-2 -5 -4 -37 -3 -73 l0 -65 98 -3 97 -3 0 -28 c0 -16 -7
-31 -15 -35 -8 -3 -15 -14 -15 -25 0 -11 -4 -22 -9 -25 -5 -3 -19 -25 -31 -48
-12 -24 -35 -62 -51 -86 -16 -24 -29 -48 -29 -53 0 -6 -11 -25 -24 -42 -13
-18 -27 -42 -31 -54 -3 -13 -10 -23 -15 -23 -4 0 -13 -12 -19 -27 -37 -90 -56
-103 -148 -103 l-73 0 0 -80 c0 -57 4 -80 13 -80 122 -4 519 -1 524 4 10 10
10 147 0 153 -6 3 -40 6 -78 7 -37 1 -71 5 -75 9 -5 4 0 20 10 35 9 15 22 39
29 54 6 15 20 29 31 32 38 10 417 6 437 -4 10 -6 19 -17 19 -24 0 -7 9 -23 20
-36 44 -50 13 -77 -76 -67 -26 3 -47 0 -51 -6 -5 -8 -7 -113 -3 -157 0 -3 33
-4 73 -4 39 1 201 3 360 3 l287 1 0 80 0 80 -72 0 c-107 0 -111 3 -152 83 -44
85 -49 96 -64 122 -7 11 -14 25 -16 30 -2 6 -7 17 -10 25 -4 8 -17 33 -29 55
-13 22 -41 71 -61 109 -21 38 -47 83 -57 100 -10 17 -21 38 -25 46 -3 8 -10
22 -15 30 -5 8 -14 26 -20 40 -27 63 -9 60 -385 60 -189 0 -344 -3 -346 -7z
m454 -233 c16 -30 38 -70 49 -88 35 -60 32 -62 -94 -62 -63 0 -116 2 -119 5
-6 7 19 59 50 102 12 17 22 36 22 41 0 15 43 62 54 59 5 -2 22 -28 38 -57z"/>
</g>
</svg>
